<svg xmlns="http://www.w3.org/2000/svg" viewBox="0 0 520 420" width="520" height="420" font-family="ui-monospace, monospace">
<title>The backup cryocooler</title>
<rect width="520" height="420" fill="#12162a"/>
<circle cx="185.7" cy="79.1" r="1.35" fill="#e8ecf4" fill-opacity="0.89"/>
<circle cx="494.6" cy="70.2" r="1.58" fill="#e8ecf4" fill-opacity="0.64"/>
<circle cx="511.8" cy="402.3" r="1.43" fill="#e8ecf4" fill-opacity="0.63"/>
<circle cx="441.3" cy="370.5" r="0.41" fill="#e8ecf4" fill-opacity="0.59"/>
<circle cx="507.6" cy="142.8" r="0.72" fill="#e8ecf4" fill-opacity="0.47"/>
<circle cx="62.6" cy="378.5" r="1.46" fill="#e8ecf4" fill-opacity="0.36"/>
<circle cx="223.9" cy="374.9" r="0.49" fill="#e8ecf4" fill-opacity="0.8"/>
<circle cx="476.1" cy="139.1" r="0.52" fill="#e8ecf4" fill-opacity="0.31"/>
<circle cx="56.4" cy="253.9" r="0.77" fill="#e8ecf4" fill-opacity="0.74"/>
<circle cx="135.9" cy="302.2" r="0.98" fill="#e8ecf4" fill-opacity="0.41"/>
<circle cx="518.6" cy="88.4" r="1.29" fill="#e8ecf4" fill-opacity="0.74"/>
<circle cx="120.9" cy="213.2" r="0.4" fill="#e8ecf4" fill-opacity="0.43"/>
<circle cx="180.9" cy="100.9" r="1.55" fill="#e8ecf4" fill-opacity="0.64"/>
<circle cx="230" cy="174.6" r="1.44" fill="#e8ecf4" fill-opacity="0.68"/>
<circle cx="92.3" cy="319.8" r="0.62" fill="#e8ecf4" fill-opacity="0.66"/>
<circle cx="61.5" cy="175" r="1.59" fill="#e8ecf4" fill-opacity="0.38"/>
<circle cx="147.5" cy="33.1" r="0.86" fill="#e8ecf4" fill-opacity="0.62"/>
<circle cx="267.1" cy="339.9" r="0.7" fill="#e8ecf4" fill-opacity="0.34"/>
<circle cx="263.3" cy="236.5" r="1" fill="#e8ecf4" fill-opacity="0.56"/>
<circle cx="358" cy="115.5" r="0.97" fill="#e8ecf4" fill-opacity="0.43"/>
<circle cx="512.4" cy="354.3" r="0.91" fill="#e8ecf4" fill-opacity="0.48"/>
<circle cx="265.1" cy="149.1" r="1.46" fill="#e8ecf4" fill-opacity="0.43"/>
<circle cx="498.9" cy="77.8" r="0.88" fill="#e8ecf4" fill-opacity="0.66"/>
<circle cx="76.2" cy="143.6" r="0.9" fill="#e8ecf4" fill-opacity="0.46"/>
<circle cx="364.5" cy="180" r="1.41" fill="#e8ecf4" fill-opacity="0.6"/>
<circle cx="138.3" cy="357.6" r="1.59" fill="#e8ecf4" fill-opacity="0.47"/>
<circle cx="214.7" cy="155.8" r="1.18" fill="#e8ecf4" fill-opacity="0.29"/>
<circle cx="502.2" cy="146.3" r="0.71" fill="#e8ecf4" fill-opacity="0.65"/>
<circle cx="427.5" cy="234.7" r="0.46" fill="#e8ecf4" fill-opacity="0.88"/>
<circle cx="253.6" cy="211.1" r="0.89" fill="#e8ecf4" fill-opacity="0.31"/>
<circle cx="47.8" cy="231.9" r="0.85" fill="#e8ecf4" fill-opacity="0.71"/>
<circle cx="323" cy="107.8" r="1.57" fill="#e8ecf4" fill-opacity="0.71"/>
<circle cx="405.8" cy="37.3" r="1.31" fill="#e8ecf4" fill-opacity="0.81"/>
<circle cx="56.1" cy="397.7" r="1.57" fill="#e8ecf4" fill-opacity="0.82"/>
<circle cx="197.1" cy="39.3" r="1.25" fill="#e8ecf4" fill-opacity="0.4"/>
<circle cx="397.8" cy="342" r="0.49" fill="#e8ecf4" fill-opacity="0.63"/>
<circle cx="477.6" cy="315.8" r="1.52" fill="#e8ecf4" fill-opacity="0.53"/>
<circle cx="263.7" cy="7.2" r="1.46" fill="#e8ecf4" fill-opacity="0.33"/>
<circle cx="360.4" cy="349.4" r="1.14" fill="#e8ecf4" fill-opacity="0.76"/>
<circle cx="174.5" cy="333.6" r="0.67" fill="#e8ecf4" fill-opacity="0.37"/>
<circle cx="345.5" cy="60.3" r="0.59" fill="#e8ecf4" fill-opacity="0.8"/>
<circle cx="404.4" cy="137" r="1.17" fill="#e8ecf4" fill-opacity="0.37"/>
<circle cx="334.9" cy="87.9" r="0.91" fill="#e8ecf4" fill-opacity="0.58"/>
<circle cx="147.2" cy="22.4" r="0.6" fill="#e8ecf4" fill-opacity="0.85"/>
<circle cx="509.6" cy="64.1" r="0.98" fill="#e8ecf4" fill-opacity="0.47"/>
<circle cx="489.5" cy="327.4" r="1.54" fill="#e8ecf4" fill-opacity="0.34"/>
<circle cx="275.2" cy="93.4" r="1.45" fill="#e8ecf4" fill-opacity="0.83"/>
<circle cx="159" cy="237.5" r="1.32" fill="#e8ecf4" fill-opacity="0.3"/>
<circle cx="449.3" cy="383.2" r="1.36" fill="#e8ecf4" fill-opacity="0.64"/>
<circle cx="149.4" cy="301.9" r="1.42" fill="#e8ecf4" fill-opacity="0.32"/>
<circle cx="327.5" cy="362.2" r="0.42" fill="#e8ecf4" fill-opacity="0.5"/>
<circle cx="369.3" cy="84.6" r="1.34" fill="#e8ecf4" fill-opacity="0.31"/>
<circle cx="101.6" cy="243.8" r="1.34" fill="#e8ecf4" fill-opacity="0.28"/>
<circle cx="20.6" cy="250.6" r="1.08" fill="#e8ecf4" fill-opacity="0.56"/>
<circle cx="52.4" cy="272.3" r="0.93" fill="#e8ecf4" fill-opacity="0.37"/>
<circle cx="449.9" cy="392.1" r="1.34" fill="#e8ecf4" fill-opacity="0.29"/>
<circle cx="67.3" cy="156.7" r="1.39" fill="#e8ecf4" fill-opacity="0.54"/>
<circle cx="54.9" cy="298.6" r="0.75" fill="#e8ecf4" fill-opacity="0.36"/>
<circle cx="34" cy="15.8" r="0.96" fill="#e8ecf4" fill-opacity="0.41"/>
<circle cx="81.2" cy="96.6" r="1.37" fill="#e8ecf4" fill-opacity="0.77"/>
<circle cx="158" cy="347" r="0.43" fill="#e8ecf4" fill-opacity="0.78"/>
<circle cx="449.1" cy="287.7" r="1.28" fill="#e8ecf4" fill-opacity="0.5"/>
<circle cx="12.4" cy="374.1" r="1.18" fill="#e8ecf4" fill-opacity="0.44"/>
<circle cx="10.8" cy="343.8" r="0.61" fill="#e8ecf4" fill-opacity="0.81"/>
<circle cx="120.9" cy="323.5" r="0.76" fill="#e8ecf4" fill-opacity="0.61"/>
<circle cx="234.8" cy="230.7" r="0.97" fill="#e8ecf4" fill-opacity="0.39"/>
<circle cx="208" cy="288.5" r="0.87" fill="#e8ecf4" fill-opacity="0.38"/>
<circle cx="228.7" cy="224.4" r="0.95" fill="#e8ecf4" fill-opacity="0.79"/>
<rect x="28" y="28" width="464" height="364" rx="12" fill="#1b2138" stroke="#5b6270" stroke-width="3"/>
<rect x="150" y="96" width="140" height="210" rx="16" fill="#5b6270" stroke="#9aa2b0" stroke-width="3"/>
<rect x="150" y="96" width="140" height="210" rx="16" fill="none" stroke="#7d8594" stroke-width="10"/>
<rect x="134" y="118" width="172" height="9" rx="4" fill="#7d8594"/>
<rect x="134" y="144" width="172" height="9" rx="4" fill="#7d8594"/>
<rect x="134" y="170" width="172" height="9" rx="4" fill="#7d8594"/>
<rect x="134" y="196" width="172" height="9" rx="4" fill="#7d8594"/>
<rect x="134" y="222" width="172" height="9" rx="4" fill="#7d8594"/>
<rect x="134" y="248" width="172" height="9" rx="4" fill="#7d8594"/>
<rect x="134" y="274" width="172" height="9" rx="4" fill="#7d8594"/>
<ellipse cx="220" cy="96" rx="70" ry="16" fill="#9aa2b0"/>
<path d="M220 306 L220 346" stroke="#7d8594" stroke-width="12"/>
<rect x="160" y="346" width="120" height="22" rx="5" fill="#5b6270"/>
<circle cx="388" cy="176" r="52" fill="#12162a" stroke="#9aa2b0" stroke-width="4"/>
<path d="M388 176 L360 142" stroke="#c9959c" stroke-width="5" stroke-linecap="round"/>
<circle cx="388" cy="176" r="5" fill="#dde1e7"/>
<text x="388" y="214" text-anchor="middle" font-size="13" fill="#c9959c">+18 K</text>
<text x="388" y="240" text-anchor="middle" font-size="11" fill="#5b6270">WARM</text>
<g stroke="#dde1e7" stroke-opacity="0.55" stroke-width="2" stroke-linecap="round">
<path d="M126 132 L110 122 M126 184 L108 180 M126 236 L110 244"/>
</g>
<text x="260" y="396" text-anchor="middle" font-size="15" fill="#5b6270">40 MINUTES TO COLD</text>
<text x="507" y="403.8" text-anchor="end" font-size="16.2" fill="#5b6270">520 x 420</text>
</svg>
