<svg xmlns="http://www.w3.org/2000/svg" viewBox="0 0 520 380" width="520" height="380" font-family="ui-monospace, monospace">
<title>Waveguide access port</title>
<rect width="520" height="380" fill="#12162a"/>
<circle cx="430.1" cy="222.8" r="0.85" fill="#e8ecf4" fill-opacity="0.49"/>
<circle cx="349.4" cy="371" r="1.02" fill="#e8ecf4" fill-opacity="0.83"/>
<circle cx="335" cy="100.3" r="1.05" fill="#e8ecf4" fill-opacity="0.83"/>
<circle cx="261.7" cy="198.9" r="1.54" fill="#e8ecf4" fill-opacity="0.66"/>
<circle cx="79.9" cy="172.8" r="0.99" fill="#e8ecf4" fill-opacity="0.86"/>
<circle cx="253.9" cy="75.5" r="0.8" fill="#e8ecf4" fill-opacity="0.42"/>
<circle cx="329.2" cy="149.6" r="1.15" fill="#e8ecf4" fill-opacity="0.75"/>
<circle cx="472.9" cy="317.6" r="0.88" fill="#e8ecf4" fill-opacity="0.6"/>
<circle cx="278.1" cy="100.8" r="0.51" fill="#e8ecf4" fill-opacity="0.83"/>
<circle cx="450" cy="183.7" r="1.47" fill="#e8ecf4" fill-opacity="0.78"/>
<circle cx="483.6" cy="51" r="0.75" fill="#e8ecf4" fill-opacity="0.73"/>
<circle cx="123.8" cy="200.5" r="1.04" fill="#e8ecf4" fill-opacity="0.62"/>
<circle cx="197.7" cy="56.9" r="1.55" fill="#e8ecf4" fill-opacity="0.46"/>
<circle cx="213.6" cy="363.6" r="0.68" fill="#e8ecf4" fill-opacity="0.32"/>
<circle cx="286.4" cy="122.8" r="0.62" fill="#e8ecf4" fill-opacity="0.77"/>
<circle cx="23.4" cy="130.9" r="0.73" fill="#e8ecf4" fill-opacity="0.6"/>
<circle cx="101.8" cy="193.4" r="0.67" fill="#e8ecf4" fill-opacity="0.64"/>
<circle cx="296.3" cy="125.9" r="0.9" fill="#e8ecf4" fill-opacity="0.4"/>
<circle cx="82.6" cy="172.9" r="1.17" fill="#e8ecf4" fill-opacity="0.85"/>
<circle cx="130.2" cy="243.5" r="0.8" fill="#e8ecf4" fill-opacity="0.89"/>
<circle cx="418.2" cy="111.9" r="0.41" fill="#e8ecf4" fill-opacity="0.58"/>
<circle cx="22.1" cy="35.8" r="0.72" fill="#e8ecf4" fill-opacity="0.77"/>
<circle cx="122.9" cy="275.8" r="1.29" fill="#e8ecf4" fill-opacity="0.58"/>
<circle cx="398.9" cy="105.2" r="1.03" fill="#e8ecf4" fill-opacity="0.77"/>
<circle cx="433.6" cy="259.6" r="0.95" fill="#e8ecf4" fill-opacity="0.74"/>
<circle cx="53.3" cy="122.3" r="0.7" fill="#e8ecf4" fill-opacity="0.77"/>
<circle cx="100.9" cy="298.1" r="1.34" fill="#e8ecf4" fill-opacity="0.61"/>
<circle cx="473.9" cy="147.2" r="1.58" fill="#e8ecf4" fill-opacity="0.3"/>
<circle cx="314.8" cy="350.6" r="0.61" fill="#e8ecf4" fill-opacity="0.7"/>
<circle cx="39.7" cy="68.4" r="1.16" fill="#e8ecf4" fill-opacity="0.5"/>
<circle cx="298.4" cy="187.4" r="1.02" fill="#e8ecf4" fill-opacity="0.47"/>
<circle cx="418.9" cy="40.5" r="1.11" fill="#e8ecf4" fill-opacity="0.79"/>
<circle cx="454.4" cy="213" r="1.47" fill="#e8ecf4" fill-opacity="0.26"/>
<circle cx="238.9" cy="304" r="1.34" fill="#e8ecf4" fill-opacity="0.64"/>
<circle cx="322.1" cy="1.2" r="0.86" fill="#e8ecf4" fill-opacity="0.81"/>
<circle cx="395.8" cy="207" r="1.49" fill="#e8ecf4" fill-opacity="0.79"/>
<circle cx="454" cy="276.7" r="1.07" fill="#e8ecf4" fill-opacity="0.88"/>
<circle cx="414.9" cy="237.3" r="1.56" fill="#e8ecf4" fill-opacity="0.58"/>
<circle cx="438.6" cy="131.7" r="1.15" fill="#e8ecf4" fill-opacity="0.78"/>
<circle cx="7.4" cy="268.2" r="1.34" fill="#e8ecf4" fill-opacity="0.45"/>
<circle cx="441.4" cy="22.5" r="1.35" fill="#e8ecf4" fill-opacity="0.9"/>
<circle cx="187.6" cy="241.4" r="0.97" fill="#e8ecf4" fill-opacity="0.48"/>
<circle cx="55.6" cy="218.1" r="0.95" fill="#e8ecf4" fill-opacity="0.5"/>
<circle cx="62.3" cy="295.7" r="1.27" fill="#e8ecf4" fill-opacity="0.47"/>
<circle cx="167.9" cy="27.8" r="0.77" fill="#e8ecf4" fill-opacity="0.86"/>
<circle cx="230.8" cy="233.8" r="1.24" fill="#e8ecf4" fill-opacity="0.84"/>
<circle cx="165.2" cy="51.4" r="0.94" fill="#e8ecf4" fill-opacity="0.83"/>
<circle cx="169.9" cy="143.5" r="1.4" fill="#e8ecf4" fill-opacity="0.59"/>
<circle cx="388.8" cy="188" r="1.4" fill="#e8ecf4" fill-opacity="0.8"/>
<circle cx="105.7" cy="44" r="0.84" fill="#e8ecf4" fill-opacity="0.28"/>
<circle cx="422.5" cy="331.3" r="0.41" fill="#e8ecf4" fill-opacity="0.33"/>
<circle cx="303.3" cy="335.4" r="1.46" fill="#e8ecf4" fill-opacity="0.25"/>
<circle cx="395.9" cy="142.2" r="0.78" fill="#e8ecf4" fill-opacity="0.88"/>
<circle cx="172.1" cy="69.9" r="1.07" fill="#e8ecf4" fill-opacity="0.67"/>
<circle cx="389.8" cy="292.7" r="0.46" fill="#e8ecf4" fill-opacity="0.36"/>
<circle cx="86.3" cy="62.3" r="1.52" fill="#e8ecf4" fill-opacity="0.26"/>
<circle cx="174.7" cy="104.1" r="0.71" fill="#e8ecf4" fill-opacity="0.71"/>
<circle cx="210.1" cy="221.5" r="1.41" fill="#e8ecf4" fill-opacity="0.83"/>
<circle cx="284.7" cy="122.7" r="0.8" fill="#e8ecf4" fill-opacity="0.64"/>
<circle cx="290.4" cy="275.4" r="0.53" fill="#e8ecf4" fill-opacity="0.65"/>
<circle cx="246.4" cy="295.9" r="1.28" fill="#e8ecf4" fill-opacity="0.74"/>
<circle cx="141.9" cy="307.7" r="1.52" fill="#e8ecf4" fill-opacity="0.26"/>
<rect x="30" y="30" width="460" height="320" rx="10" fill="#1b2138" stroke="#5b6270" stroke-width="3"/>
<g stroke="#5b6270" stroke-width="2" fill="none">
<path d="M30 110 L490 110"/><path d="M30 270 L490 270"/>
</g>
<circle cx="260" cy="190" r="112" fill="#2b3350" stroke="#7d8594" stroke-width="12"/>
<circle cx="260" cy="190" r="112" fill="none" stroke="#9aa2b0" stroke-width="2"/>
<circle cx="260" cy="190" r="86" fill="#12162a"/>
<g fill="#9aa2b0">
<circle cx="352.5" cy="228" r="6"/><circle cx="298.5" cy="282.3" r="6"/><circle cx="222" cy="282.5" r="6"/><circle cx="167.7" cy="228.5" r="6"/><circle cx="167.5" cy="152" r="6"/><circle cx="221.5" cy="97.7" r="6"/><circle cx="298" cy="97.5" r="6"/><circle cx="352.3" cy="151.5" r="6"/>
</g>
<path d="M260 190 m-86 0 a86 86 0 0 1 172 0" fill="none" stroke="#5b6270" stroke-width="3"/>
<path d="M382 190 L446 148 L446 232 Z" fill="#7d8594"/>
<circle cx="244" cy="206" r="2.6" fill="#c8d65a"/><circle cx="276" cy="206" r="2.6" fill="#c8d65a"/>
<text x="260" y="332" text-anchor="middle" font-size="18" fill="#9aa2b0">WG-2 ACCESS</text>
<text x="507" y="365.4" text-anchor="end" font-size="14.6" fill="#5b6270">520 x 380</text>
</svg>
